<?xml version="1.0" encoding="UTF-8" standalone="no"?>
<!-- Created with Inkscape (http://www.inkscape.org/) -->

<svg
   width="158.61232mm"
   height="33.404453mm"
   viewBox="0 0 158.61232 33.404453"
   version="1.1"
   id="svg1"
   xml:space="preserve"
   xmlns="http://www.w3.org/2000/svg"
   xmlns:svg="http://www.w3.org/2000/svg"><defs
     id="defs1" /><g
     id="layer1"
     transform="translate(-6.8028399,-224.8753)"><path
       style="fill:#053b59;fill-opacity:1;stroke:none;stroke-width:0.279119;stroke-opacity:1"
       d="m 25.276708,258.13306 c -0.06331,-0.10136 -0.09162,-0.52363 -0.09162,-1.36623 0,-1.24908 -0.07042,-1.52278 -0.216522,-0.84155 -0.06059,0.28256 -0.05854,0.48711 0.0082,0.81031 0.100428,0.48622 0.03997,0.62857 -0.161379,0.38018 -0.356117,-0.43924 -0.327067,-1.50673 0.06311,-2.3197 l 0.201977,-0.42084 -0.643328,-0.66766 c -0.686094,-0.71204 -0.951408,-1.2045 -0.949937,-1.76323 0.0013,-0.41904 0.318104,-1.00987 0.825152,-1.53791 l 0.458309,-0.47727 -0.500412,-0.45165 c -0.604082,-0.54521 -1.189668,-1.3569 -1.337112,-1.85341 -0.20616,-0.69422 0.09585,-1.37535 0.97412,-2.19693 0.265812,-0.24865 0.454351,-0.47719 0.41897,-0.50785 -0.0354,-0.0307 -0.370264,-0.2461 -0.744187,-0.47874 -1.052937,-0.65511 -1.572567,-1.31775 -1.572567,-2.00538 0,-0.51775 0.54563,-1.1849 1.347845,-1.64807 0.202189,-0.11673 0.338887,-0.22933 0.303771,-0.25023 -0.03514,-0.0209 -0.296466,-0.12915 -0.580787,-0.24057 -0.744604,-0.29177 -1.284686,-0.63708 -1.725626,-1.10331 -0.462856,-0.48941 -0.601192,-0.79238 -0.59903,-1.31198 0.002,-0.45961 0.17884,-0.88782 0.53151,-1.2864 0.138839,-0.15691 0.326178,-0.40755 0.416311,-0.55698 0.160743,-0.2665 0.554925,-0.51286 0.989123,-0.61818 0.225717,-0.0548 0.262875,-0.14221 0.08881,-0.209 -0.06285,-0.0241 -0.147928,-0.1404 -0.189063,-0.2584 l -0.07479,-0.21454 -0.372226,0.25049 c -0.306502,0.20626 -0.441198,0.2505 -0.762802,0.2505 -0.496779,0 -0.696947,-0.1504 -0.75262,-0.56547 l -0.04097,-0.30548 -0.23629,0.13941 c -0.645483,0.38085 -1.628334,0.55134 -1.925542,0.33402 -0.18907,-0.13826 -0.180479,-0.52537 0.02068,-0.93197 0.08818,-0.17824 0.146403,-0.33802 0.129366,-0.35505 -0.01704,-0.017 -0.273634,0.0694 -0.570213,0.19205 -1.116473,0.46179 -1.850809,0.57731 -2.184432,0.34362 -0.226519,-0.15865 -0.214176,-0.5156 0.0303,-0.87533 l 0.194393,-0.28607 -0.212856,0.0543 c -0.805476,0.20556 -1.354607,0.2813 -2.098973,0.28951 -0.702217,0.008 -0.887442,-0.0137 -1.052367,-0.12153 -0.355262,-0.23242 -0.224749,-0.54327 0.414442,-0.98711 0.21031,-0.14604 0.315923,-0.24083 0.234686,-0.21066 -0.530091,0.19689 -3.126055,0.16682 -3.5138143,-0.0407 -0.2313586,-0.12381 -0.1743261,-0.40208 0.135173,-0.65955 0.1523163,-0.1267 0.8335843,-0.51227 1.5139243,-0.85682 0.680346,-0.34455 1.236988,-0.6407 1.236988,-0.65811 0,-0.0322 -0.327193,0.11032 -1.687845,0.73546 l -0.764719,0.35134 -1.3769345,0.002 c -1.5012751,0.002 -1.9926246,-0.0493 -2.0565318,-0.21588 -0.067427,-0.17572 0.058272,-0.24001 0.9074821,-0.46419 0.4433129,-0.11702 1.2048094,-0.3527 1.692221,-0.52373 1.9946532,-0.69992 5.7488022,-2.43626 7.4928722,-3.46554 1.693528,-0.99945 2.464418,-1.27507 3.584643,-1.28163 0.868322,-0.005 1.383001,0.14864 1.837723,0.5489 0.574502,0.5057 0.802585,1.07363 0.931865,2.32037 0.08395,0.80958 0.285911,1.33627 0.55106,1.43708 0.09003,0.0342 0.326848,0.0724 0.526253,0.0847 l 0.362561,0.0225 0.02148,-0.60767 c 0.02088,-0.59074 0.01624,-0.60965 -0.165357,-0.67871 -0.165999,-0.0631 -0.187518,-0.11448 -0.193087,-0.46087 -0.0033,-0.21441 -0.01213,-0.59188 -0.01923,-0.8388 -0.01134,-0.39184 0.01405,-0.48444 0.199822,-0.72787 0.543981,-0.71293 1.634029,-0.61514 2.041278,0.18313 0.173047,0.3392 0.185291,0.64599 0.03971,0.99446 -0.06305,0.15084 -0.07807,0.27195 -0.03693,0.29738 0.03819,0.0236 0.0694,0.14145 0.0694,0.26192 0,0.16566 -0.04495,0.23612 -0.184621,0.28921 -0.177276,0.0674 -0.184628,0.0956 -0.184628,0.70826 v 0.63806 l 0.424638,-0.0529 c 0.233553,-0.0291 0.48592,-0.0856 0.560825,-0.12561 0.223171,-0.11912 0.422815,-0.68672 0.496255,-1.41086 0.144733,-1.42712 0.556656,-2.20894 1.375775,-2.61116 0.408502,-0.20058 0.476115,-0.21042 1.425813,-0.20761 0.94039,0.003 1.032605,0.0164 1.624701,0.24102 0.345251,0.13094 1.145808,0.53621 1.779012,0.90061 2.883706,1.65956 7.136398,3.52204 9.275704,4.06233 0.921331,0.23268 0.982851,0.25818 0.982851,0.40745 0,0.24069 -0.306476,0.28638 -1.920106,0.28626 l -1.587775,-1.1e-4 -1.127246,-0.53167 c -0.619979,-0.29242 -1.151701,-0.53083 -1.1816,-0.5298 -0.0299,0.001 0.497223,0.2918 1.171378,0.64618 1.503184,0.79018 1.782155,0.99102 1.750964,1.26058 -0.03726,0.32167 -0.408171,0.40137 -1.905873,0.40947 -0.710808,0.004 -1.392076,-0.0182 -1.513924,-0.0489 l -0.221554,-0.0559 0.221554,0.16549 c 0.466708,0.34861 0.638555,0.56618 0.614232,0.77767 -0.01883,0.16382 -0.08138,0.22335 -0.318834,0.30348 -0.482631,0.16287 -2.222153,0.02 -3.082832,-0.25312 -0.130366,-0.0414 -0.12558,-0.0174 0.04727,0.237 0.24239,0.35672 0.253945,0.71418 0.02818,0.87229 -0.331721,0.23235 -1.237314,0.0917 -2.209949,-0.34318 -0.280178,-0.12527 -0.527937,-0.20925 -0.55057,-0.18662 -0.02261,0.0226 0.0085,0.11881 0.06914,0.21372 0.06066,0.0949 0.15121,0.31231 0.201215,0.48309 0.07735,0.26417 0.07346,0.33716 -0.02605,0.48902 -0.06431,0.0982 -0.206286,0.19558 -0.315472,0.21645 -0.285852,0.0546 -1.060773,-0.12418 -1.497802,-0.34564 -0.206571,-0.10468 -0.393301,-0.19032 -0.414959,-0.19032 -0.02168,0 -0.03938,0.0923 -0.03938,0.20512 0,0.67616 -0.825583,0.85494 -1.578083,0.34174 -0.288325,-0.19664 -0.411512,-0.16667 -0.414734,0.10091 -5.57e-4,0.0516 -0.08392,0.13162 -0.185112,0.17773 -0.179027,0.0816 -0.173007,0.0883 0.223436,0.24941 0.498954,0.20279 0.598905,0.28298 0.771103,0.6187 0.07431,0.14488 0.224722,0.3465 0.33424,0.44804 0.543489,0.50392 0.739255,1.43626 0.427051,2.03383 -0.345192,0.66072 -1.193341,1.31871 -2.190591,1.69946 -0.309572,0.11819 -0.562861,0.23254 -0.562861,0.25412 0,0.0215 0.269053,0.21716 0.597904,0.43466 0.745493,0.49307 1.027586,0.89068 1.025173,1.44501 -0.0033,0.76166 -0.377682,1.24047 -1.579674,2.02032 -0.409742,0.26584 -0.754357,0.48971 -0.765813,0.49749 -0.01147,0.008 0.224763,0.2523 0.524941,0.54337 1.356854,1.31567 1.306199,2.21888 -0.210118,3.74664 l -0.669216,0.67427 0.426342,0.47042 c 1.132828,1.24992 1.079952,2.07654 -0.217656,3.40259 -0.420216,0.42943 -0.612607,0.67545 -0.5557,0.71062 0.173146,0.10701 0.386671,0.71467 0.388295,1.10501 0.002,0.46852 -0.230437,0.99223 -0.425838,0.95969 -0.110856,-0.0184 -0.128755,0.0653 -0.145441,0.68053 -0.01697,0.62613 -0.109332,1.0339 -0.23417,1.0339 -0.024,0 -0.08483,-0.066 -0.135213,-0.1467 z m 0.566713,-2.32728 c 0.002,-0.12186 -0.02818,-0.2714 -0.06753,-0.33232 -0.05005,-0.0775 -0.07036,0.0336 -0.06753,0.36924 0.0027,0.33586 0.02314,0.43567 0.06753,0.33233 0.03494,-0.0812 0.0653,-0.2474 0.06753,-0.36925 z m 0.25588,-2.78859 c 0.374659,-0.54399 0.442571,-0.8216 0.3023,-1.2357 -0.110817,-0.32713 -0.505901,-0.8839 -0.576504,-0.81242 -0.05436,0.055 -0.0932,2.43673 -0.03971,2.43665 0.02552,-4e-5 0.166788,-0.17488 0.313941,-0.38853 z m -1.022826,-1.95882 c -0.02804,-0.0731 -0.08753,-0.0431 -0.213221,0.10753 -0.55993,0.67087 -0.556417,1.19977 0.01293,1.94386 l 0.198139,0.25896 0.02049,-1.1045 c 0.01134,-0.60748 0.0033,-1.15011 -0.01836,-1.20585 z m -0.09796,-4.88863 c -0.06039,-0.16323 -0.07391,-0.15697 -0.429649,0.19876 -0.232711,0.23271 -0.401522,0.48152 -0.460689,0.679 -0.08399,0.28032 -0.07749,0.34453 0.06457,0.63796 0.08687,0.17945 0.313145,0.49896 0.502838,0.71002 l 0.344894,0.38376 0.02022,-1.22048 c 0.01114,-0.67126 -0.0079,-1.29632 -0.04216,-1.38902 z m 1.311205,2.18287 c 0.172065,-0.19995 0.381872,-0.50562 0.46623,-0.67926 0.136201,-0.28033 0.143175,-0.34976 0.06232,-0.61977 -0.05721,-0.19088 -0.232784,-0.44661 -0.471714,-0.68697 l -0.380599,-0.38289 -0.05005,0.4431 c -0.07414,0.65609 -0.07599,2.34241 -0.0027,2.31397 0.03494,-0.0135 0.204337,-0.18822 0.376409,-0.38818 z m -1.327307,-5.63676 c -5.57e-4,-0.59911 -0.03003,-1.13497 -0.06543,-1.19079 -0.138965,-0.21938 -1.244202,0.58486 -1.366792,0.99456 -0.02983,0.0997 0.0078,0.22324 0.105898,0.34796 0.153496,0.19515 1.157495,0.93756 1.267894,0.93756 0.03275,0 0.05907,-0.49018 0.05841,-1.08929 z m 1.748511,0.6288 c 0.358576,-0.26558 0.63935,-0.53066 0.663348,-0.62628 0.0242,-0.0965 -0.01578,-0.26406 -0.09579,-0.40106 -0.139515,-0.23889 -0.811787,-0.74218 -1.114869,-0.83464 l -0.166165,-0.0507 v 0.9558 c 0,0.52569 -0.02075,1.05964 -0.04614,1.18658 -0.06665,0.33323 0.04528,0.29939 0.759634,-0.22971 z m -1.858818,-6.53681 c -0.0295,-1.45207 -0.06298,-2.65062 -0.0744,-2.66343 -0.0114,-0.0128 -0.181976,0.14909 -0.379021,0.35979 -0.197045,0.2107 -0.519564,0.47523 -0.716709,0.58785 l -0.358443,0.20476 0.30503,0.0515 c 0.194738,0.0329 0.397789,0.13901 0.561535,0.29344 0.210019,0.19808 0.256497,0.29565 0.256497,0.53846 0,0.24958 -0.04435,0.33665 -0.280151,0.54965 -0.342911,0.3098 -0.914263,0.59446 -1.299801,0.64758 -0.640365,0.0882 -0.55169,0.51829 0.217629,1.05543 0.554527,0.38718 1.638357,1.0124 1.758064,1.01415 0.03514,5.6e-4 0.03951,-1.1762 0.0097,-2.63921 z m 1.757057,2.37111 c 0.594688,-0.30129 1.662309,-1.04207 1.79609,-1.24625 0.110936,-0.16931 0.11087,-0.19733 -6.63e-4,-0.36789 -0.08571,-0.13081 -0.187293,-0.18463 -0.348486,-0.18463 -0.295074,0 -1.198008,-0.47542 -1.432741,-0.75438 -0.210794,-0.25052 -0.230623,-0.48937 -0.06692,-0.80594 0.129465,-0.25036 0.605653,-0.5029 0.955147,-0.50656 0.212028,-0.002 0.205425,-0.0115 -0.15351,-0.21744 -0.206292,-0.11832 -0.548289,-0.40466 -0.760004,-0.63631 -0.21171,-0.23164 -0.396026,-0.40869 -0.409583,-0.39344 -0.01359,0.0152 -0.04846,1.2158 -0.0776,2.66788 -0.03885,1.93792 -0.03083,2.64014 0.03016,2.64014 0.04568,0 0.256457,-0.0878 0.468345,-0.19518 z m 15.566623,14.86066 c -0.05118,-0.0617 -0.0776,-0.28129 -0.06444,-0.53542 l 0.02234,-0.43087 h 61.627904 61.6279 l 0.0223,0.43087 c 0.0132,0.25413 -0.0133,0.47376 -0.0644,0.53542 -0.1309,0.15774 -123.04069,0.15774 -123.171601,0 z m 15.390838,-4.24713 c -0.631269,-0.10061 -1.161321,-0.28375 -1.622971,-0.56077 -1.564857,-0.939 -2.351797,-2.68379 -2.228391,-4.94077 0.05356,-0.97982 0.182811,-1.49893 0.578194,-2.32245 0.40949,-0.8529 1.204253,-1.66519 1.998154,-2.04221 0.724769,-0.34419 1.587894,-0.50363 2.421425,-0.44729 1.509821,0.10204 2.471737,0.62979 3.239113,1.77711 0.568569,0.85008 0.826166,1.66701 0.9339,2.96177 0.04183,0.50268 0.03023,0.6168 -0.07298,0.72004 -0.110617,0.11062 -0.441669,0.12268 -3.366814,0.12268 h -3.244125 v 0.28184 c 0,0.4285 0.145216,1.12272 0.295862,1.41437 0.186087,0.36026 0.636878,0.7776 1.03344,0.95673 0.419288,0.1894 1.228576,0.20388 1.735796,0.031 0.426534,-0.14534 0.91677,-0.60705 1.110308,-1.04571 0.07471,-0.16934 0.187711,-0.32364 0.251108,-0.34287 0.06338,-0.0192 0.527141,0.0221 1.030543,0.0918 1.15839,0.16041 1.168679,0.17286 0.785753,0.95146 -0.539797,1.09758 -1.615413,1.97154 -2.797822,2.2733 -0.539028,0.13756 -1.589857,0.19815 -2.080497,0.11995 z m 2.771112,-6.63884 c 0,-0.59758 -0.534619,-1.41324 -1.135207,-1.73198 -0.433953,-0.2303 -1.357392,-0.2303 -1.791337,0 -0.469334,0.24908 -0.89065,0.77735 -1.061735,1.33126 -0.08103,0.26233 -0.147324,0.50671 -0.147324,0.54305 0,0.0373 0.900806,0.0661 2.067802,0.0661 h 2.067798 z m 6.535734,6.6309 c -1.15154,-0.17724 -2.266223,-0.70286 -2.759403,-1.30116 -0.332317,-0.40316 -0.633257,-1.06539 -0.546651,-1.20294 0.04667,-0.0742 0.371795,-0.17282 0.913846,-0.27731 1.201468,-0.23161 1.188322,-0.23326 1.491636,0.18892 0.384272,0.53488 0.783937,0.70543 1.726746,0.73682 0.929494,0.031 1.471374,-0.10337 1.749248,-0.4336 0.410902,-0.48834 0.298344,-1.04562 -0.265592,-1.31498 -0.173733,-0.083 -0.859432,-0.25437 -1.523777,-0.38087 -1.349753,-0.25702 -1.963395,-0.45452 -2.518121,-0.81049 -1.550551,-0.99499 -1.674329,-3.23853 -0.252844,-4.58291 0.741906,-0.70167 1.788877,-1.00484 3.203438,-0.92763 1.268811,0.0693 2.11668,0.38068 2.743839,1.00784 0.513524,0.51353 0.874303,1.29912 0.658004,1.4328 -0.03801,0.0235 -0.494251,0.12884 -1.013867,0.2341 -0.886971,0.17969 -0.949369,0.18357 -1.020177,0.0635 -0.401143,-0.68011 -0.735752,-0.90343 -1.454229,-0.97052 -1.023634,-0.0956 -1.833674,0.31041 -1.833674,0.91904 0,0.62964 0.342003,0.80752 2.378257,1.23697 0.857124,0.18077 1.735039,0.40954 1.950921,0.50837 0.527787,0.24163 1.089404,0.78254 1.33792,1.28858 0.1884,0.38364 0.203986,0.48321 0.203986,1.30313 0,0.85403 -0.0092,0.90646 -0.242271,1.37988 -0.422541,0.8583 -1.251452,1.44432 -2.485654,1.75731 -0.688491,0.1746 -1.815081,0.24157 -2.441581,0.14514 z m 9.120488,-0.0258 c -0.889066,-0.19646 -1.548297,-0.72683 -1.851976,-1.49001 -0.171237,-0.43033 -0.175327,-0.49814 -0.213667,-3.54044 l -0.03909,-3.1017 -0.516951,-0.0209 c -0.377076,-0.0153 -0.541929,-0.054 -0.609264,-0.14335 -0.05896,-0.0782 -0.09231,-0.37901 -0.09231,-0.8327 0,-0.45356 0.03337,-0.75462 0.09231,-0.83296 0.06986,-0.0929 0.235989,-0.12772 0.683114,-0.14335 l 0.590798,-0.0207 0.04773,-0.4431 c 0.02625,-0.2437 0.07101,-0.78429 0.09951,-1.20132 0.04236,-0.61954 0.07599,-0.77115 0.184071,-0.82899 0.07275,-0.0389 0.504681,-0.0934 0.959841,-0.12105 0.671105,-0.0408 0.840001,-0.0306 0.893308,0.0536 0.03613,0.0572 0.06623,0.6595 0.06687,1.33862 l 0.0013,1.23479 0.94159,0.0207 0.94159,0.0207 v 0.92313 0.92312 l -0.94159,0.0207 -0.94159,0.0207 v 2.61797 c 0,2.17704 0.01903,2.66552 0.112931,2.90023 0.165642,0.41396 0.443227,0.54562 1.244387,0.5902 0.370456,0.0206 0.697974,0.0744 0.727819,0.11943 0.02983,0.0451 0.05476,0.43842 0.05542,0.87413 0.0013,0.94346 -0.0077,0.95425 -0.906554,1.08265 -0.702363,0.10033 -1.002799,0.0964 -1.529371,-0.02 z m 13.145316,0.0536 c -0.554534,-0.0732 -1.200129,-0.25368 -1.569975,-0.43884 -1.491026,-0.7465 -2.542883,-2.36346 -2.983962,-4.58707 -0.195566,-0.9859 -0.174989,-2.91508 0.04196,-3.93528 0.541978,-2.54852 2.034357,-4.27147 4.068859,-4.69748 0.761669,-0.15949 2.144921,-0.10697 2.807435,0.1066 0.956996,0.3085 1.897824,1.03392 2.481627,1.91345 0.326994,0.49264 0.652708,1.3002 0.815937,2.023 0.09964,0.44122 0.101986,0.53457 0.01558,0.61969 -0.150885,0.14858 -2.139552,0.35709 -2.251767,0.23609 -0.04621,-0.0498 -0.157839,-0.33898 -0.248085,-0.64259 -0.305508,-1.02783 -0.695209,-1.6111 -1.323011,-1.98017 -0.309121,-0.18173 -0.409026,-0.20026 -1.079156,-0.20026 -0.673021,0 -0.7692,0.018 -1.084685,0.2035 -1.131217,0.66498 -1.68947,2.39433 -1.588425,4.92059 0.0688,1.71994 0.384099,2.73505 1.089127,3.50646 0.478017,0.52302 0.96053,0.73817 1.657834,0.73919 1.131184,0.002 2.064998,-0.81423 2.388094,-2.08652 0.07409,-0.29176 0.166099,-0.56185 0.204463,-0.60021 0.101575,-0.10158 2.106517,0.12958 2.236791,0.25788 0.218411,0.21513 -0.233851,1.70293 -0.757453,2.49176 -0.369647,0.5569 -1.168116,1.29647 -1.710405,1.58424 -0.243345,0.12913 -0.686001,0.30228 -0.983687,0.38477 -0.538179,0.14914 -1.733363,0.24638 -2.227079,0.1812 z m 9.305111,-0.0296 c -0.993365,-0.17103 -1.898998,-0.84984 -2.340023,-1.75393 -0.187559,-0.3845 -0.20518,-0.49286 -0.206433,-1.26966 -0.0013,-0.78288 0.01538,-0.88554 0.212863,-1.3132 0.352815,-0.76403 1.131243,-1.38196 2.188476,-1.73726 0.708349,-0.23806 1.553064,-0.36306 2.766792,-0.40944 l 1.25546,-0.048 0.0233,-0.36905 c 0.0339,-0.53905 -0.0398,-0.82109 -0.28882,-1.10474 -0.33956,-0.38674 -0.77646,-0.52055 -1.69147,-0.51804 -0.677059,0.002 -0.827944,0.0265 -1.189497,0.19417 -0.431247,0.20001 -0.756365,0.54329 -0.842872,0.88997 -0.09344,0.37447 -0.181267,0.39398 -1.16266,0.25836 -0.491515,-0.0679 -0.925328,-0.15516 -0.964024,-0.19386 -0.08902,-0.089 0.04826,-0.65434 0.259388,-1.06819 0.21385,-0.41917 0.906951,-1.07585 1.391526,-1.3184 0.794882,-0.39785 1.45591,-0.52024 2.840469,-0.52588 0.95964,-0.004 1.36394,0.0243 1.71588,0.11952 1.28808,0.34865 2.05244,1.115 2.23717,2.243 0.039,0.2382 0.0711,1.71109 0.0714,3.27309 2.8e-4,2.27464 0.0243,2.98334 0.12037,3.55997 0.066,0.39598 0.10024,0.77129 0.0762,0.83404 -0.0624,0.16255 -2.05197,0.1697 -2.18628,0.008 -0.0485,-0.0584 -0.14363,-0.40736 -0.21143,-0.77542 -0.0678,-0.36807 -0.14317,-0.66921 -0.1675,-0.66921 -0.0243,0 -0.0793,0.0748 -0.12225,0.16616 -0.13292,0.28318 -0.59311,0.76855 -0.95754,1.00994 -0.68052,0.45075 -1.910842,0.67616 -2.828374,0.51818 z m 2.354195,-1.95693 c 0.95131,-0.2825 1.55986,-1.2801 1.55986,-2.55706 v -0.5774 h -0.47468 c -0.63747,0 -1.50923,0.1266 -2.074883,0.30131 -1.127193,0.34815 -1.677325,1.10054 -1.442453,1.97278 0.09966,0.3701 0.497428,0.79521 0.835394,0.89282 0.378398,0.10928 1.173972,0.0931 1.596762,-0.0324 z m 16.09872,1.96056 c -0.98936,-0.15629 -1.72447,-0.53618 -2.44129,-1.26159 -0.56338,-0.57014 -1.00593,-1.38938 -1.21311,-2.24565 -0.15648,-0.64673 -0.17798,-2.31884 -0.038,-2.95401 0.41228,-1.87061 1.63231,-3.25597 3.25888,-3.70047 0.72769,-0.19885 2.09428,-0.18642 2.77245,0.0252 1.74062,0.5432 2.87536,2.22792 3.03554,4.50679 0.0446,0.63342 0.0358,0.71429 -0.0871,0.80411 -0.10984,0.0803 -0.77139,0.0998 -3.38139,0.0998 h -3.24483 l 0.0512,0.51942 c 0.0763,0.7745 0.22545,1.18918 0.56735,1.57761 0.48709,0.55336 0.77962,0.67234 1.65298,0.67234 0.61872,0 0.78754,-0.0263 1.04089,-0.16181 0.34929,-0.1869 0.70387,-0.56679 0.91463,-0.9799 0.0809,-0.15859 0.18083,-0.30919 0.22205,-0.33466 0.065,-0.0402 1.42885,0.12063 1.90265,0.2243 0.22719,0.0497 0.21253,0.23695 -0.0628,0.8016 -0.55279,1.13372 -1.57852,1.98163 -2.7679,2.28803 -0.55943,0.14412 -1.64724,0.20335 -2.18228,0.11883 z m 2.84773,-6.70126 c -0.18291,-1.03971 -0.91172,-1.75742 -1.87313,-1.8446 -0.61169,-0.0555 -1.12248,0.13034 -1.55937,0.56723 -0.34875,0.34875 -0.66108,0.99716 -0.66108,1.37246 v 0.18185 h 2.07115 2.07115 z m 31.71412,6.70126 c -0.9861,-0.15578 -1.83827,-0.59845 -2.49111,-1.29405 -0.79298,-0.84493 -1.22893,-1.97238 -1.31265,-3.39479 -0.16713,-2.8396 1.35922,-5.12161 3.70521,-5.53959 3.08264,-0.54922 5.21208,1.26218 5.47291,4.65553 0.0445,0.57853 0.0353,0.65796 -0.0869,0.74723 -0.10992,0.0804 -0.77089,0.0999 -3.38251,0.0999 h -3.24589 l 0.0465,0.49998 c 0.0256,0.27498 0.0966,0.66891 0.15796,0.8754 0.13404,0.45138 0.59699,1.00407 1.02584,1.2247 0.3657,0.18814 1.26628,0.26204 1.7151,0.14072 0.42549,-0.115 0.88621,-0.47126 1.13689,-0.87912 0.42197,-0.68656 0.27857,-0.63568 1.35918,-0.48213 0.70499,0.10018 0.97252,0.16738 1.03015,0.25875 0.0605,0.096 0.009,0.26162 -0.23022,0.74517 -0.53859,1.08692 -1.64573,1.97135 -2.82306,2.25518 -0.48301,0.11644 -1.59623,0.16312 -2.0774,0.0871 z m 2.83994,-6.70126 c -0.0607,-0.41452 -0.33787,-0.98558 -0.61104,-1.25875 -1.14436,-1.14436 -3.06005,-0.5549 -3.43077,1.05567 -0.028,0.12185 -0.0683,0.27971 -0.0894,0.35079 -0.0359,0.12096 0.0964,0.12923 2.06666,0.12923 h 2.10507 z m -111.830478,6.41135 c -0.05105,-0.0953 -0.07645,-2.29148 -0.07645,-6.60431 0,-5.95563 0.0097,-6.47118 0.124208,-6.58567 0.113654,-0.11365 0.388256,-0.12104 3.230946,-0.087 3.355272,0.0402 3.740353,0.0794 4.52081,0.46128 0.481789,0.23572 1.20056,0.99426 1.45821,1.53889 0.422146,0.89234 0.42619,2.07282 0.01014,2.95232 -0.240527,0.50842 -0.786337,1.07572 -1.251759,1.30103 -0.186053,0.0901 -0.338277,0.17427 -0.338277,0.18713 0,0.0129 0.215124,0.12405 0.478058,0.24709 0.660166,0.30893 1.166306,0.80323 1.479769,1.44515 0.940835,1.92669 0.03222,4.31244 -1.900781,4.99094 -0.72345,0.25393 -1.326664,0.29306 -4.540837,0.29457 -3.007463,0.001 -3.120268,-0.003 -3.19402,-0.14139 z m 6.238057,-2.19496 c 1.406468,-0.47923 1.552938,-2.44297 0.236622,-3.17242 l -0.384643,-0.21315 -1.827792,-0.0231 -1.827791,-0.0231 v 1.77708 1.77708 h 1.722325 c 1.409412,0 1.787538,-0.0222 2.081279,-0.1223 z m -0.102205,-5.7705 c 0.550808,-0.28775 0.826424,-0.73976 0.864755,-1.41822 0.03461,-0.6129 -0.14159,-1.06647 -0.529216,-1.36213 -0.462863,-0.35304 -0.811979,-0.41041 -2.497823,-0.41041 h -1.539115 v 1.69856 1.69855 h 1.653193 1.653194 z m 58.636596,8.00778 c -0.0606,-0.073 -0.0782,-1.43355 -0.0644,-4.96642 l 0.019,-4.86589 0.98676,-0.0207 c 0.65091,-0.0136 1.02079,0.008 1.08678,0.0624 0.0692,0.0575 0.10647,0.31375 0.12099,0.83302 l 0.021,0.75 0.24485,-0.4321 c 0.56024,-0.98865 1.72085,-1.68704 2.48492,-1.49527 l 0.19086,0.0479 -0.0202,1.23206 -0.0202,1.23206 -0.55699,0.0861 c -0.92515,0.14293 -1.43203,0.50416 -1.76561,1.25827 -0.34478,0.77943 -0.37293,1.05448 -0.37293,3.64375 0,1.54742 -0.0282,2.50232 -0.0764,2.59256 -0.0701,0.13103 -0.16403,0.14285 -1.13563,0.14285 -0.8034,0 -1.07933,-0.0243 -1.14262,-0.10053 z m 22.01358,0.0119 c -0.0676,-0.0676 -0.0886,-1.64382 -0.0886,-6.64391 0,-6.40544 0.003,-6.55704 0.14284,-6.63174 0.0935,-0.05 1.5573,-0.0764 4.24111,-0.0764 3.62722,0 4.1116,0.0133 4.21431,0.11605 0.092,0.092 0.11605,0.29169 0.11605,0.96491 0,0.46687 -0.0344,0.91314 -0.0764,0.9917 -0.0737,0.13761 -0.18588,0.14285 -3.06478,0.14285 h -2.98833 v 1.66162 1.66163 h 2.35416 c 1.91925,0 2.36989,0.019 2.43932,0.10261 0.0572,0.0688 0.0783,0.41513 0.0644,1.05236 l -0.0207,0.94976 -2.40013,0.0369 -2.40013,0.0369 -0.0198,1.71701 -0.0198,1.71702 h 3.01444 c 2.24611,0 3.03703,0.0226 3.10306,0.0886 0.0599,0.0599 0.0886,0.40207 0.0886,1.05605 0,0.65399 -0.0287,0.99615 -0.0886,1.05606 -0.12793,0.12793 -8.48298,0.12793 -8.61092,0 z m 12.63173,-0.004 c -0.0751,-0.094 -3.31513,-9.37964 -3.34341,-9.58204 -0.0409,-0.29294 -0.031,-0.29541 1.18102,-0.29541 1.04806,0 1.18646,0.0143 1.24613,0.12924 0.0369,0.0711 0.52416,1.45854 1.08276,3.08324 0.5586,1.62471 1.04093,2.98184 1.07184,3.01586 0.0309,0.034 0.51305,-1.3119 1.07141,-2.99094 0.55836,-1.67902 1.04804,-3.09432 1.08817,-3.14508 0.10313,-0.13045 1.81739,-0.13045 1.86715,0 0.0392,0.10284 -3.17767,9.63222 -3.30233,9.78243 -0.10973,0.1322 -1.85728,0.13461 -1.96274,0.003 z m 16.83446,0.004 c -0.14036,-0.14035 -0.1268,-9.68367 0.0139,-9.80045 0.0691,-0.0573 0.4247,-0.0784 1.08929,-0.0644 l 0.98676,0.0207 0.0369,0.81235 0.0369,0.81235 0.23082,-0.40618 c 0.28974,-0.5098 0.95314,-1.14182 1.41228,-1.34547 0.22022,-0.0977 0.51582,-0.15801 0.79395,-0.16204 l 0.4431,-0.007 v 1.25231 1.25232 l -0.55699,0.0861 c -0.9307,0.1439 -1.38185,0.46107 -1.72471,1.21253 -0.38674,0.84764 -0.41383,1.09424 -0.41383,3.7671 0,1.83091 -0.0232,2.50383 -0.0886,2.56924 -0.0605,0.0605 -0.41848,0.0886 -1.12991,0.0886 -0.71142,0 -1.06936,-0.028 -1.12991,-0.0886 z M 42.146037,233.19538 c -0.08547,-0.0855 -0.05337,-0.87724 0.03931,-0.96994 0.06879,-0.0688 13.852266,-0.0886 61.581933,-0.0886 52.94171,0 61.50538,0.0145 61.58008,0.10454 0.0512,0.0617 0.0776,0.2813 0.0644,0.53542 l -0.0223,0.43087 -61.59708,0.0185 c -33.878403,0.0102 -61.619268,-0.004 -61.646368,-0.0308 z"
       id="path1" /></g></svg>
