<?xml version="1.0"?>
<svg width="1170" height="1024" xmlns="http://www.w3.org/2000/svg" xmlns:svg="http://www.w3.org/2000/svg" xmlns:xlink="http://www.w3.org/1999/xlink" class="svg-icon" version="1.1">
 <g class="layer">
  <title>Layer 1</title>
  <path d="m564,707.14zm533.14,152.29l0,-694.86q0,-7.43 -5.43,-12.86t-12.85,-5.42l-987.43,0q-7.43,0 -12.86,5.42t-5.43,12.86l0,694.86q0,7.43 5.43,12.86t12.86,5.42l201.14,0l0,-54.85q0,-8 5.14,-13.15t13.15,-5.14l36.57,0q8,0 13.14,5.14t5.14,13.15l0,54.85l438.86,0l0,-54.85q0,-8 5.14,-13.15t13.15,-5.14l36.57,0q8,0 13.14,5.14t5.14,13.15l0,54.85l201.15,0q7.43,0 12.85,-5.42t5.43,-12.86zm73.15,-694.86l0,694.86q0,37.71 -26.86,64.57t-64.57,26.86l-987.43,0q-37.72,0 -64.57,-26.86t-26.86,-64.57l0,-694.86q0,-37.71 26.86,-64.57t64.57,-26.86l987.43,0q37.71,0 64.57,26.86t26.86,64.57z" id="svg_1"/>
  <use id="svg_3" transform="matrix(0.632578 0 0 0.55376 172.534 326.921)" x="594.55" xlink:href="#svg_2" y="-57.35"/>
  <rect fill="#000000" height="46.67" id="svg_4" stroke="#000000" transform="matrix(1 0 0 1 0 0)" width="850" x="149.67" y="226.67"/>
  <rect fill="#000000" height="46.67" id="svg_5" stroke="#000000" transform="matrix(1 0 0 1 0 0)" width="393.33" x="162.67" y="648"/>
  <rect fill="#000000" height="210" id="svg_6" stroke="#000000" transform="matrix(1 0 0 1 0 0)" width="390" x="159.67" y="350"/>
  <rect fill="#000000" height="46.67" id="svg_7" stroke="#000000" transform="matrix(1 0 0 1 0 0)" width="850" x="156" y="728"/>
 </g>
 <defs>
  <symbol height="800px" id="svg_2" viewBox="0 0 24 24" width="800px" xmlns="http://www.w3.org/2000/svg">
   <path d="m3,9l6,0l0,-6l-6,0l0,6zm1,-5l4,0l0,4l-4,0l0,-4zm1,1l2,0l0,2l-2,0l0,-2zm10,4l6,0l0,-6l-6,0l0,6zm1,-5l4,0l0,4l-4,0l0,-4zm1,1l2,0l0,2l-2,0l0,-2zm-14,16l6,0l0,-6l-6,0l0,6zm1,-5l4,0l0,4l-4,0l0,-4zm1,1l2,0l0,2l-2,0l0,-2zm15,2l1,0l0,2l-2,0l0,-3l1,0l0,1zm0,-3l1,0l0,1l-1,0l0,-1zm0,-1l0,1l-1,0l0,-1l1,0zm-10,2l1,0l0,4l-1,0l0,-4zm-4,-7l0,2l-2,0l0,-1l-1,0l0,-1l3,0zm4,-3l1,0l0,1l-1,0l0,-1zm3,-3l0,2l-1,0l0,-3l2,0l0,1l-1,0zm-3,0l1,0l0,1l-1,0l0,-1zm10,8l1,0l0,2l-2,0l0,-1l1,0l0,-1zm-1,-2l0,1l-2,0l0,2l-2,0l0,-1l1,0l0,-2l3,0zm-7,4l-1,0l0,-1l-1,0l0,-1l2,0l0,2zm6,2l1,0l0,1l-1,0l0,-1zm2,-5l0,1l-1,0l0,-1l1,0zm-9,3l0,1l-1,0l0,-1l1,0zm6,5l1,0l0,2l-2,0l0,-2l1,0zm-3,0l1,0l0,1l-1,0l0,1l-2,0l0,-1l1,0l0,-1l1,0zm0,-1l0,-1l2,0l0,1l-2,0zm0,-5l1,0l0,3l-1,0l0,1l-1,0l0,1l-1,0l0,-2l-1,0l0,-1l3,0l0,-1l-1,0l0,-1l1,0zm-9,0l0,1l-1,0l0,-1l1,0zm12,4l-1,0l0,-1l1,0l0,1zm1,-2l-2,0l0,-1l2,0l0,1zm-10,-5l1,0l0,1l-1,0l0,1l1,0l0,2l-1,0l0,-1l-1,0l0,1l-1,0l0,-2l1,0l0,-2l1,0zm3,0l0,-2l3,0l0,3l-2,0l0,-1l1,0l0,-1l-1,0l0,1l-1,0zm0,-4l1,0l0,1l-1,0l0,-1zm-1,4l1,0l0,1l-1,0l0,-1zm3,-3l0,-1l1,0l0,1l-1,0z"/>
   <path d="m0,0l24,0l0,24l-24,0l0,-24z" fill="none"/>
  </symbol>
 </defs>
</svg>